<svg xmlns="http://www.w3.org/2000/svg" xmlns:xlink="http://www.w3.org/1999/xlink" width="254" height="254">
	<path fill="#3E3069" d="M127.389 65.7064C130.801 63.4027 135.668 60.5016 139.938 61.3425C146.148 62.5655 152.854 67.7159 158.24 70.9632L178.23 82.919C182.732 85.6189 187.187 88.5369 191.911 90.8317C202.986 86.4719 212.909 78.8975 223.421 73.3716C223.952 80.4965 223.608 87.7874 223.569 94.9305L223.211 135.371L223.134 163.744C223.126 168.821 223.446 174.209 222.868 179.25C222.59 181.677 221.685 184.079 220.088 185.951C216.215 190.487 182.475 209.059 174.674 213.92C167.515 218.629 159.899 222.701 152.519 227.057C146.215 230.778 139.276 235.907 132.392 238.27C129.853 239.141 127.449 239.169 124.814 238.646C118.795 237.452 71.5372 207.835 61.7129 202.075C53.1172 197.036 43.7449 192.531 35.5099 186.969C33.4502 185.578 32.1708 184.115 30.8067 182.051C37.5791 179.68 44.0426 175.088 50.2421 171.449L74.4833 157.347C72.9106 154.312 73.9122 110.449 73.6347 103.046L73.7412 98.9279C73.7559 98.3956 73.7863 97.9493 73.969 97.4462C74.0098 97.334 122.935 67.8204 127.389 65.7064Z"/>
	<path fill="#F2EEE9" d="M73.7412 98.9279C73.7559 98.3956 73.7863 97.9493 73.969 97.4462C74.0098 97.334 122.935 67.8204 127.389 65.7064C138.516 72.9399 150.021 79.6975 161.371 86.5837C166.385 89.6257 172.298 92.4749 176.746 96.2511C177.843 97.1826 178.202 97.7875 178.499 99.1797C179.796 105.252 178.874 118.62 178.835 125.315C178.775 135.488 179.299 145.952 178.538 156.08C177.781 157.278 177.008 158.354 175.878 159.225C171.276 162.772 165.639 165.528 160.611 168.439C149.709 174.754 138.595 180.882 127.925 187.581C126.352 187.748 79.7845 160.502 74.4833 157.347C72.9106 154.312 73.9122 110.449 73.6347 103.046L73.7412 98.9279Z"/>
	<defs>
		<linearGradient id="gradient_0" gradientUnits="userSpaceOnUse" x1="126.01138" y1="15.947045" x2="126.69218" y2="95.661209">
			<stop offset="0" stop-color="#CE4895"/>
			<stop offset="1" stop-color="#AA53A4"/>
		</linearGradient>
	</defs>
	<path fill="url(#gradient_0)" d="M29.7978 72.2445C31.3946 70.0696 33.2423 68.6864 35.4739 67.2265C41.2675 63.4362 47.4278 60.0974 53.4138 56.619L82.5646 39.5867Q94.0418 32.9005 105.431 26.0652C110.215 23.1696 114.988 19.9415 119.931 17.3445C121.643 16.4449 123.415 15.776 125.332 15.4821C128.014 15.0709 130.326 15.431 132.791 16.5509C137.315 18.6058 141.64 21.525 145.915 24.0545L170.406 38.5059L200.96 56.0697C206.69 59.3711 212.795 62.4592 218.105 66.4083C220.522 68.2063 222.242 70.6163 223.421 73.3716C212.909 78.8975 202.986 86.4719 191.911 90.8317C187.187 88.5369 182.732 85.6189 178.23 82.919L158.24 70.9632C152.854 67.7159 146.148 62.5655 139.938 61.3425C135.668 60.5016 130.801 63.4027 127.389 65.7064C122.935 67.8204 74.0098 97.334 73.969 97.4462C73.7863 97.9493 73.7559 98.3956 73.7412 98.9279L73.8208 98.6477L73.1307 98.5275L73.6746 98.3638C72.9841 97.3554 49.5336 84.9738 46.5547 83.2241C40.8105 79.85 35.2511 76.0695 29.7978 72.2445Z"/>
	<path fill="#8F4D9C" d="M29.7978 72.2445C35.2511 76.0695 40.8105 79.85 46.5547 83.2241C49.5336 84.9738 72.9841 97.3554 73.6746 98.3638L73.1307 98.5275L73.8208 98.6477L73.7412 98.9279L73.6347 103.046C73.9122 110.449 72.9106 154.312 74.4833 157.347L50.2421 171.449C44.0426 175.088 37.5791 179.68 30.8067 182.051C29.4215 179.093 29.1201 176.041 28.9349 172.823C28.5208 165.627 28.9133 158.263 28.9437 151.048L29.0233 111.425L29.0526 87.8776C29.0482 83.4855 28.5587 78.5413 29.3768 74.2373L29.7978 72.2445Z"/>
</svg> 